<svg><defs>
<g id="delete"><path d="M 10.75,2 C 9.375,2 8.25,3.125 8.25,4.5 l -2.5,0 C 4.375,4.5 3.25,5.625 3.25,7 l 17.5,0 c 0,-1.375 -1.125,-2.5 -2.5,-2.5 l -2.5,0 C 15.75,3.125 14.625,2 13.25,2 l -2.5,0 z m -5,7.5 0,12.025 C 5.75,21.8 5.95,22 6.225,22 L 17.8,22 c 0.275,0 0.475,-0.2 0.475,-0.475 l 0,-12.025 -2.5,0 0,8.75 c 0,0.7 -0.55,1.25 -1.25,1.25 -0.7,0 -1.25,-0.55 -1.25,-1.25 l 0,-8.75 -2.5,0 0,8.75 c 0,0.7 -0.55,1.25 -1.25,1.25 -0.7,0 -1.25,-0.55 -1.25,-1.25 l 0,-8.75 -2.5,0 z" /></g>
<g id="edit"><path d="m 17,2 -2.5,2.5 5,5 L 22,7 17,2 Z M 12,7 2,17 2,22 7,22 17,12 12,7 Z"/></g>
<g id="sort-ascending"><path d="m 7,2 0,15 -5,0 6.25,5 6.25,-5 -5,0 L 9.5,2 7,2 Z m 5,0 0,2.5 5,0 0,-2.5 -5,0 z m 0,5 0,2.5 7.5,0 0,-2.5 -7.5,0 z m 0,5 0,2.5 10,0 0,-2.5 -10,0 z"/></g>
<g id="logout"><path d="m 9.5,3.2500003 0,2.5 10,0 0,12.4999997 -10,0 0,2.5 12.5,0 0,-17.4999997 -12.5,0 z M 7,8.2500001 2,12 l 5,3.75 0,-2.5 10,0 0,-2.5 -10,0 0,-2.4999999 z"/></g>
</defs></svg>
