<?xml version="1.0" encoding="UTF-8" standalone="no"?>
<svg
   xmlns:dc="http://purl.org/dc/elements/1.1/"
   xmlns:cc="http://creativecommons.org/ns#"
   xmlns:rdf="http://www.w3.org/1999/02/22-rdf-syntax-ns#"
   xmlns:svg="http://www.w3.org/2000/svg"
   xmlns="http://www.w3.org/2000/svg"
   xmlns:xlink="http://www.w3.org/1999/xlink"
   xml:space="preserve"
   enable-background="new 0 0 960 560"
   viewBox="0 0 128 179"
   height="179"
   width="128"
   y="0px"
   x="0px"
   id="Calque_1"
   version="1.1"><metadata
     id="metadata4241"><rdf:RDF><cc:Work
         rdf:about=""><dc:format>image/svg+xml</dc:format><dc:type
           rdf:resource="http://purl.org/dc/dcmitype/StillImage" /><dc:title></dc:title></cc:Work></rdf:RDF></metadata><defs
     id="defs4239"><defs
       id="defs4149"><rect
         y="0"
         id="SVGID_1_"
         x="7"
         width="960"
         height="560" /></defs><clipPath
       id="SVGID_2_"><use
         height="100%"
         width="100%"
         y="0"
         x="0"
         style="overflow:visible"
         xlink:href="#SVGID_1_"
         overflow="visible"
         id="use4153" /></clipPath></defs><g
     transform="matrix(0.63504329,0,0,0.63504329,-229.22203,188.65202)"
     id="g6487"><polyline
       style="fill:#ffffff;fill-opacity:1"
       id="polyline4165"
       points="499.128,174.976 546,163.974 499.194,184.539  "
       clip-path="url(#SVGID_2_)"
       transform="translate(0,-429)" /><path
       style="fill:#093f52;fill-opacity:1"
       id="path4167"
       d="m 499.999,186.37 -1.609,-3.662 26.898,-11.818 -25.703,6.033 -0.914,-3.895 46.872,-11.002 c 1.006,-0.232 2.026,0.334 2.354,1.314 0.328,0.981 -0.146,2.049 -1.092,2.465 l -46.806,20.565 z"
       clip-path="url(#SVGID_2_)"
       transform="translate(0,-429)" /><path
       style="fill:#093f52;fill-opacity:1"
       id="path4155"
       d="m 448.756,275.962 c -0.287,0 -0.579,-0.062 -0.855,-0.193 L 416.508,260.89 c -0.579,-0.275 -0.991,-0.81 -1.109,-1.44 -0.118,-0.63 0.073,-1.278 0.514,-1.743 l 24.539,-25.904 c 0.76,-0.801 2.026,-0.836 2.827,-0.076 0.802,0.759 0.836,2.026 0.077,2.827 l -22.643,23.902 28.901,13.698 c 0.998,0.474 1.424,1.666 0.951,2.664 -0.342,0.723 -1.06,1.144 -1.809,1.144"
       clip-path="url(#SVGID_2_)"
       transform="translate(0,-429)" /><path
       style="fill:#093f52;fill-opacity:1"
       id="path4157"
       d="m 452.478,283.815 c -0.491,0 -0.983,-0.18 -1.37,-0.543 l -25.5,-23.972 c -0.387,-0.364 -0.614,-0.868 -0.629,-1.399 -0.016,-0.532 0.181,-1.047 0.547,-1.434 l 24.538,-25.904 c 0.76,-0.801 2.026,-0.837 2.828,-0.077 0.802,0.76 0.836,2.026 0.077,2.828 l -23.159,24.447 24.038,22.597 c 0.804,0.757 0.843,2.022 0.087,2.827 -0.393,0.419 -0.924,0.63 -1.457,0.63"
       clip-path="url(#SVGID_2_)"
       transform="translate(0,-429)" /><path
       style="fill:#093f52;fill-opacity:1"
       id="path4159"
       d="m 417.095,168.307 c -12.867,-9.998 -24.877,-16.07 -24.877,-16.07 0,0 8.85,10.138 21.717,20.136 12.867,9.998 24.005,17.193 24.878,16.07 0.872,-1.123 -8.852,-10.138 -21.718,-20.136"
       clip-path="url(#SVGID_2_)"
       transform="translate(0,-429)" /><path
       style="fill:#093f52;fill-opacity:1"
       id="path4161"
       d="m 438.607,191.567 c -2.225,0 -5.283,-1.833 -9.363,-4.469 -4.771,-3.081 -10.86,-7.469 -17.15,-12.356 -12.946,-10.061 -21.767,-20.11 -22.136,-20.532 -0.945,-1.082 -0.99,-2.681 -0.109,-3.814 0.881,-1.133 2.441,-1.485 3.722,-0.837 0.501,0.254 12.417,6.318 25.365,16.378 6.289,4.888 12.046,9.705 16.21,13.566 5.211,4.833 8.219,7.969 6.035,10.78 -0.691,0.89 -1.543,1.284 -2.574,1.284"
       clip-path="url(#SVGID_2_)"
       transform="translate(0,-429)" /><path
       style="fill:#093f52;fill-opacity:1"
       id="path4163"
       d="m 392.217,248.551 c -12.689,4.82 14.666,6.399 43.152,-1.859 16.8,-4.87 31.67,-13.45 30.167,-18.067 -1.502,-4.616 -70.142,-38.795 -49.015,-16.085 18.306,19.678 -5.366,28.817 -24.304,36.011"
       clip-path="url(#SVGID_2_)"
       transform="translate(0,-429)" /><path
       style="fill:#093f52;fill-opacity:1"
       id="path4169"
       d="m 484.158,186.309 c -2.502,-5.695 0.084,-12.341 5.78,-14.843 5.693,-2.501 12.342,0.087 14.844,5.782 2.502,5.694 -1.909,8.198 -7.603,10.699 -4.127,1.813 -9.078,9.543 -10.156,6.004 -0.341,-1.125 -2.175,-6.075 -2.865,-7.642"
       clip-path="url(#SVGID_2_)"
       transform="translate(0,-429)" /><path
       style="fill:#093f52;fill-opacity:1"
       id="path4173"
       d="m 463.15,236.327 -4.361,-8.999 c 0.084,-0.042 9.672,-4.815 20.633,-16.115 4.346,-4.48 4.498,-10.036 4.646,-15.41 0.151,-5.523 0.34,-12.396 7.123,-14.988 l 3.568,9.342 c -0.061,0.023 -0.086,0.039 -0.086,0.039 -0.466,0.644 -0.552,3.796 -0.609,5.882 -0.173,6.255 -0.408,14.823 -7.465,22.097 -12.281,12.662 -22.999,17.934 -23.449,18.152"
       clip-path="url(#SVGID_2_)"
       transform="translate(0,-429)" /><path
       style="fill:#093f52;fill-opacity:1"
       id="path4175"
       d="m 422.15,232.712 c -6.013,-3.848 -12.275,-4.799 -12.275,-4.799 0,0 3.486,5.288 9.499,9.137 6.013,3.848 11.509,5.996 12.275,4.799 0.767,-1.198 -3.486,-5.288 -9.499,-9.137"
       clip-path="url(#SVGID_2_)"
       transform="translate(0,-429)" /><path
       style="fill:#093f52;fill-opacity:1"
       id="path4177"
       d="m 430.846,245.178 c -2.319,0 -6.258,-1.229 -13.089,-5.601 -6.475,-4.144 -10.231,-9.774 -10.387,-10.012 -0.652,-0.989 -0.661,-2.27 -0.023,-3.268 0.639,-0.998 1.801,-1.531 2.978,-1.349 0.281,0.043 6.967,1.094 13.442,5.238 3.069,1.964 5.823,4.069 7.754,5.927 1.247,1.198 4.557,4.382 2.655,7.354 -0.365,0.569 -1.096,1.711 -3.33,1.711"
       clip-path="url(#SVGID_2_)"
       transform="translate(0,-429)" /><path
       style="fill:#093f52;fill-opacity:1"
       id="path4179"
       d="m 421.118,221.88 c -7.788,-4.984 -15.489,-6.856 -15.489,-6.856 0,0 4.925,6.209 12.713,11.194 7.788,4.984 14.723,8.053 15.489,6.855 0.767,-1.197 -4.925,-6.209 -12.713,-11.193"
       clip-path="url(#SVGID_2_)"
       transform="translate(0,-429)" /><path
       style="fill:#093f52;fill-opacity:1"
       id="path4181"
       d="m 433.122,236.328 c -1.955,0 -4.164,-0.978 -5.617,-1.621 -3.061,-1.355 -6.889,-3.472 -10.78,-5.962 -8.117,-5.195 -13.233,-11.587 -13.447,-11.856 -0.796,-1.004 -0.866,-2.403 -0.176,-3.482 0.691,-1.079 1.99,-1.602 3.235,-1.298 0.335,0.081 8.282,2.05 16.398,7.244 3.891,2.491 7.418,5.08 9.93,7.292 1.977,1.74 5.655,4.979 3.693,8.046 -0.778,1.215 -1.952,1.637 -3.236,1.637"
       clip-path="url(#SVGID_2_)"
       transform="translate(0,-429)" /><path
       style="fill:#093f52;fill-opacity:1"
       id="path4183"
       d="m 418.911,209.502 c -7.788,-4.984 -15.489,-6.856 -15.489,-6.856 0,0 4.925,6.209 12.713,11.194 7.788,4.984 14.723,8.053 15.489,6.855 0.767,-1.198 -4.925,-6.209 -12.713,-11.193"
       clip-path="url(#SVGID_2_)"
       transform="translate(0,-429)" /><path
       style="fill:#093f52;fill-opacity:1"
       id="path4185"
       d="m 431.123,223.964 c -2.527,0 -7.261,-1.618 -16.605,-7.598 -8.117,-5.194 -13.233,-11.586 -13.447,-11.856 -0.796,-1.004 -0.866,-2.402 -0.176,-3.481 0.691,-1.079 1.992,-1.603 3.235,-1.298 0.335,0.081 8.282,2.049 16.398,7.244 3.891,2.49 7.418,5.08 9.93,7.292 1.977,1.74 5.655,4.979 3.693,8.046 -0.427,0.667 -1.058,1.651 -3.028,1.651"
       clip-path="url(#SVGID_2_)"
       transform="translate(0,-429)" /><path
       style="fill:#093f52;fill-opacity:1"
       id="path4187"
       d="m 419.253,200.372 c -9.517,-6.091 -18.62,-8.86 -18.62,-8.86 0,0 6.327,7.107 15.844,13.198 9.517,6.09 17.854,10.057 18.62,8.859 0.767,-1.198 -6.327,-7.106 -15.844,-13.197"
       clip-path="url(#SVGID_2_)"
       transform="translate(0,-429)" /><path
       style="fill:#093f52;fill-opacity:1"
       id="path4189"
       d="m 434.792,216.789 c -2.689,0 -8.111,-1.987 -19.932,-9.552 -9.754,-6.242 -16.198,-13.426 -16.468,-13.729 -0.893,-1.004 -1.011,-2.48 -0.286,-3.612 0.725,-1.132 2.115,-1.644 3.4,-1.253 0.388,0.118 9.611,2.96 19.364,9.203 4.705,3.011 8.996,6.085 12.082,8.655 3.516,2.93 6.52,5.798 4.672,8.686 -0.452,0.706 -1.026,1.602 -2.832,1.602"
       clip-path="url(#SVGID_2_)"
       transform="translate(0,-429)" /><path
       style="fill:#093f52;fill-opacity:1"
       id="path4191"
       d="m 420.618,191.633 c -11.247,-7.198 -21.752,-10.864 -21.752,-10.864 0,0 7.729,8.004 18.976,15.202 11.247,7.197 20.986,12.062 21.752,10.864 0.767,-1.198 -7.729,-8.004 -18.976,-15.202"
       clip-path="url(#SVGID_2_)"
       transform="translate(0,-429)" /><path
       style="fill:#093f52;fill-opacity:1"
       id="path4193"
       d="m 439.162,210.013 c -2.053,0 -4.755,-1.23 -7.854,-2.778 -4.2,-2.098 -9.557,-5.201 -15.083,-8.738 -11.412,-7.304 -19.192,-15.307 -19.517,-15.644 -0.965,-1 -1.118,-2.531 -0.369,-3.701 0.749,-1.171 2.203,-1.674 3.515,-1.216 0.443,0.155 10.969,3.867 22.381,11.17 5.526,3.537 10.588,7.101 14.252,10.036 4.342,3.479 7.514,6.373 5.634,9.31 -0.709,1.108 -1.715,1.561 -2.959,1.561"
       clip-path="url(#SVGID_2_)"
       transform="translate(0,-429)" /><path
       style="fill:#093f52;fill-opacity:1"
       id="path4195"
       d="m 414.617,177.053 c -11.994,-9.162 -23.28,-14.543 -23.28,-14.543 0,0 8.16,9.474 20.154,18.635 11.994,9.162 22.416,15.673 23.279,14.543 0.863,-1.13 -8.16,-9.473 -20.153,-18.635"
       clip-path="url(#SVGID_2_)"
       transform="translate(0,-429)" /><path
       style="fill:#093f52;fill-opacity:1"
       id="path4197"
       d="m 434.521,198.827 c -2.169,0 -5.094,-1.687 -8.807,-4.006 -4.474,-2.795 -10.172,-6.805 -16.046,-11.292 -12.102,-9.244 -20.263,-18.664 -20.605,-19.06 -0.925,-1.076 -0.972,-2.652 -0.11,-3.78 0.861,-1.126 2.394,-1.497 3.674,-0.886 0.473,0.225 11.707,5.621 23.811,14.866 5.873,4.487 11.24,8.929 15.113,12.511 4.777,4.417 7.747,7.522 5.602,10.33 -0.7,0.918 -1.576,1.317 -2.632,1.317"
       clip-path="url(#SVGID_2_)"
       transform="translate(0,-429)" /><path
       style="fill:#093f52;fill-opacity:1"
       id="path4199"
       d="m 416.222,156.909 c -8.978,-9.189 -18.097,-14.839 -18.097,-14.839 0,0 5.436,9.249 14.413,18.438 8.978,9.189 17.08,15.833 18.097,14.839 1.018,-0.994 -5.435,-9.249 -14.413,-18.438"
       clip-path="url(#SVGID_2_)"
       transform="translate(0,-429)" /><path
       style="fill:#093f52;fill-opacity:1"
       id="path4201"
       d="m 430.418,178.475 c -2.147,0 -4.745,-1.947 -7.749,-4.41 -3.5,-2.87 -7.86,-6.941 -12.277,-11.461 -9.128,-9.343 -14.624,-18.624 -14.854,-19.015 -0.699,-1.189 -0.496,-2.701 0.49,-3.666 0.988,-0.964 2.504,-1.131 3.677,-0.404 0.384,0.239 9.535,5.95 18.663,15.293 4.416,4.521 8.384,8.975 11.172,12.541 3.329,4.259 5.678,7.709 3.192,10.139 -0.7,0.684 -1.473,0.983 -2.314,0.983"
       clip-path="url(#SVGID_2_)"
       transform="translate(0,-429)" /><path
       style="fill:#093f52;fill-opacity:1"
       id="path4203"
       d="m 434.05,169.088 c -12.627,-19.634 -25.029,-34.158 -25.029,-34.158 0,0 8.071,17.31 20.698,36.944 12.627,19.634 23.832,34.927 25.028,34.157 1.196,-0.768 -8.07,-17.308 -20.697,-36.943"
       clip-path="url(#SVGID_2_)"
       transform="translate(0,-429)" /><path
       style="fill:#093f52;fill-opacity:1"
       id="path4205"
       d="m 454.601,209.153 c -2.251,0 -4.812,-3.012 -10.501,-10.775 -4.763,-6.5 -10.766,-15.336 -16.905,-24.881 -12.591,-19.578 -20.811,-37.123 -20.893,-37.299 -0.634,-1.359 -0.165,-2.979 1.097,-3.791 1.262,-0.811 2.93,-0.566 3.904,0.576 0.125,0.147 12.679,14.905 25.271,34.483 6.138,9.546 11.688,18.674 15.626,25.703 5.945,10.612 7.056,13.53 4.171,15.386 -0.603,0.388 -1.177,0.598 -1.77,0.598"
       clip-path="url(#SVGID_2_)"
       transform="translate(0,-429)" /><path
       style="fill:#093f52;fill-opacity:1"
       id="path4207"
       d="m 448.124,175.802 c -14.237,-23.111 -27.97,-40.496 -27.97,-40.496 0,0 9.349,20.086 23.585,43.197 14.237,23.111 26.76,41.242 27.97,40.496 1.211,-0.746 -9.348,-20.086 -23.585,-43.197"
       clip-path="url(#SVGID_2_)"
       transform="translate(0,-429)" /><path
       style="fill:#093f52;fill-opacity:1"
       id="path4209"
       d="m 471.61,222.066 c -1.954,0 -3.616,-2.076 -5.122,-3.955 -1.603,-2.002 -3.739,-4.932 -6.348,-8.709 -5.311,-7.691 -12.043,-18.106 -18.955,-29.326 -14.164,-22.994 -23.657,-43.302 -23.751,-43.505 -0.642,-1.38 -0.149,-3.022 1.147,-3.82 1.296,-0.798 2.984,-0.5 3.927,0.694 0.139,0.176 14.006,17.788 28.17,40.783 6.912,11.221 13.185,21.918 17.664,30.121 2.2,4.029 3.856,7.255 4.923,9.588 1.276,2.789 2.721,5.95 0.018,7.616 -0.581,0.359 -1.138,0.513 -1.673,0.513"
       clip-path="url(#SVGID_2_)"
       transform="translate(0,-429)" /><path
       style="fill:#ffffff;fill-opacity:1"
       id="path4211"
       d="m 414.646,244.071 c -5.044,3.024 16.518,2.344 32.531,-4.692 16.014,-7.036 22.185,-13.115 24.733,-16.385 2.983,-3.83 -43.312,-54.37 -37.492,-23.904 2.17,11.358 8.48,28.04 -19.772,44.981"
       clip-path="url(#SVGID_2_)"
       transform="translate(0,-429)" /><path
       style="fill:#093f52;fill-opacity:1"
       id="path4213"
       d="m 418.161,250.793 c -6.212,0.001 -7.739,-1.681 -8.667,-3.476 -1.138,-2.201 -0.815,-5.498 2.581,-7.534 22.93,-13.75 20.328,-26.011 18.032,-36.83 -0.214,-1.008 -0.42,-1.984 -0.6,-2.925 -1.506,-7.881 -0.035,-12.899 4.372,-14.915 4.718,-2.159 10.781,0.213 19.649,7.691 5.714,4.818 12.283,11.63 17.143,17.778 5.501,6.959 8.113,11.723 5.183,15.485 -4.851,6.228 -13.823,12.247 -26.665,17.889 -8.879,3.901 -18.143,5.551 -22.875,6.188 -3.37,0.453 -6.035,0.649 -8.153,0.649 m 20.757,-55.974 c 0.022,0.758 0.125,1.838 0.411,3.333 0.168,0.876 0.361,1.786 0.561,2.725 1.986,9.363 5.087,23.981 -10.709,38.669 5.02,-0.933 10.764,-2.451 15.986,-4.745 11.771,-5.172 17.956,-9.737 21.204,-13.065 -1.731,-2.837 -6.166,-8.613 -12.566,-15.051 -7.059,-7.101 -12.247,-10.688 -14.887,-11.866"
       clip-path="url(#SVGID_2_)"
       transform="translate(0,-429)" /><path
       style="fill:#ffffff;fill-opacity:1"
       id="path4215"
       d="m 490.627,180.644 c 0.748,1.702 1.602,-0.605 3.303,-1.353 1.701,-0.747 3.607,0.347 2.859,-1.354 -0.748,-1.702 -2.733,-2.475 -4.435,-1.728 -1.701,0.748 -2.475,2.732 -1.727,4.435"
       clip-path="url(#SVGID_2_)"
       transform="translate(0,-429)" /><path
       style="fill:#093f52;fill-opacity:1"
       id="path4219"
       d="m 484.393,-15.2 -0.342,0 c -0.57,-0.076 -0.951,-0.418 -1.141,-1.026 l 0,-25.535 c 0,-0.38 0.133,-0.693 0.399,-0.941 0.266,-0.246 0.579,-0.37 0.94,-0.37 0.36,0 0.674,0.124 0.94,0.37 0.266,0.248 0.399,0.562 0.399,0.941 l 0,2.679 c 2.241,-2.66 5.11,-3.99 8.606,-3.99 2.128,0 4.075,0.541 5.842,1.624 1.768,1.083 3.145,2.519 4.133,4.304 1.026,-1.785 2.432,-3.221 4.219,-4.304 1.785,-1.083 3.724,-1.624 5.813,-1.624 3.115,0 5.786,1.111 8.009,3.334 2.223,2.224 3.334,4.894 3.334,8.009 l 0,15.22 c 0,0.342 -0.133,0.646 -0.398,0.911 -0.267,0.267 -0.59,0.399 -0.969,0.399 -0.381,0 -0.694,-0.133 -0.94,-0.399 -0.248,-0.265 -0.371,-0.569 -0.371,-0.911 l 0,-15.22 c -0.077,-2.394 -0.95,-4.437 -2.622,-6.128 -1.672,-1.69 -3.687,-2.536 -6.042,-2.536 -2.356,0 -4.38,0.855 -6.07,2.565 -1.691,1.71 -2.536,3.743 -2.536,6.099 l 0,15.391 -0.059,0.113 0,0.114 c -0.075,0.267 -0.265,0.484 -0.568,0.655 -0.305,0.171 -0.57,0.257 -0.799,0.257 l -0.284,0 -0.456,-0.228 c -0.039,0 -0.124,-0.076 -0.257,-0.229 -0.134,-0.151 -0.209,-0.247 -0.228,-0.285 -0.02,-0.037 -0.039,-0.085 -0.058,-0.143 -0.02,-0.057 -0.048,-0.104 -0.085,-0.143 l 0,-15.503 c 0,-2.394 -0.837,-4.437 -2.509,-6.128 -1.673,-1.69 -3.704,-2.536 -6.099,-2.536 -2.394,0 -4.427,0.846 -6.099,2.536 -1.673,1.691 -2.508,3.734 -2.508,6.128 l 0,15.22 c 0,0.494 -0.21,0.854 -0.628,1.083 -0.148,0.151 -0.339,0.227 -0.566,0.227" /><path
       style="fill:#093f52;fill-opacity:1"
       id="path4221"
       d="m 399.407,-15.2 -0.342,0 c -0.57,-0.076 -0.951,-0.418 -1.14,-1.026 l 0,-25.535 c 0,-0.38 0.132,-0.693 0.399,-0.941 0.266,-0.246 0.579,-0.37 0.94,-0.37 0.361,0 0.674,0.124 0.941,0.37 0.265,0.248 0.399,0.562 0.399,0.941 l 0,2.679 c 2.241,-2.66 5.111,-3.99 8.607,-3.99 2.128,0 4.075,0.541 5.842,1.624 1.767,1.083 3.144,2.519 4.132,4.304 1.027,-1.785 2.432,-3.221 4.219,-4.304 1.785,-1.083 3.724,-1.624 5.814,-1.624 3.115,0 5.786,1.111 8.008,3.334 2.223,2.224 3.334,4.894 3.334,8.009 l 0,15.22 c 0,0.342 -0.132,0.646 -0.398,0.911 -0.267,0.267 -0.59,0.399 -0.969,0.399 -0.381,0 -0.694,-0.133 -0.94,-0.399 -0.248,-0.265 -0.371,-0.569 -0.371,-0.911 l 0,-15.22 c -0.077,-2.394 -0.951,-4.437 -2.622,-6.128 -1.672,-1.69 -3.687,-2.536 -6.042,-2.536 -2.357,0 -4.38,0.855 -6.071,2.565 -1.691,1.71 -2.536,3.743 -2.536,6.099 l 0,15.391 -0.058,0.113 0,0.114 c -0.076,0.267 -0.265,0.484 -0.569,0.655 -0.305,0.171 -0.57,0.257 -0.799,0.257 l -0.284,0 -0.456,-0.228 c -0.039,0 -0.124,-0.076 -0.257,-0.229 -0.134,-0.151 -0.209,-0.247 -0.227,-0.285 -0.02,-0.037 -0.039,-0.085 -0.058,-0.143 -0.019,-0.057 -0.048,-0.104 -0.085,-0.143 l 0,-15.503 c 0,-2.394 -0.837,-4.437 -2.509,-6.128 -1.672,-1.69 -3.704,-2.536 -6.098,-2.536 -2.394,0 -4.427,0.846 -6.099,2.536 -1.673,1.691 -2.508,3.734 -2.508,6.128 l 0,15.22 c 0,0.494 -0.21,0.854 -0.628,1.083 -0.151,0.151 -0.341,0.227 -0.569,0.227" /><path
       style="fill:#093f52;fill-opacity:1"
       id="path4223"
       d="m 471.055,-16.568 0,-4.047 c -1.254,1.673 -2.813,2.992 -4.674,3.962 -1.862,0.969 -3.876,1.454 -6.042,1.454 -3.762,0 -6.954,-1.359 -9.576,-4.076 -2.621,-2.717 -3.933,-6.004 -3.933,-9.861 0,-3.856 1.312,-7.153 3.933,-9.89 2.622,-2.736 5.814,-4.104 9.576,-4.104 2.166,0 4.18,0.495 6.042,1.482 1.861,0.988 3.42,2.318 4.674,3.991 l 0,-16.075 c 0,-0.38 0.142,-0.703 0.427,-0.969 0.286,-0.266 0.618,-0.399 0.998,-0.399 0.379,0 0.703,0.134 0.969,0.399 0.266,0.266 0.4,0.589 0.4,0.969 l 0,37.164 c 0,0.381 -0.134,0.704 -0.4,0.969 -0.266,0.267 -0.59,0.4 -0.969,0.4 -0.38,0 -0.712,-0.134 -0.998,-0.4 -0.285,-0.265 -0.427,-0.589 -0.427,-0.969 m -21.432,-12.569 c 0,3.098 1.055,5.729 3.164,7.895 2.108,2.166 4.616,3.249 7.524,3.249 2.907,0 5.395,-1.035 7.466,-3.106 2.072,-2.07 3.164,-4.589 3.278,-7.553 l 0,-0.912 c -0.114,-3.001 -1.206,-5.548 -3.278,-7.638 -2.071,-2.09 -4.559,-3.136 -7.466,-3.136 -2.908,0 -5.416,1.093 -7.524,3.278 -2.109,2.186 -3.164,4.827 -3.164,7.923" /><path
       style="fill:#093f52;fill-opacity:1"
       id="path4227"
       d="m 388.977,-132.586 c 0,1.395 -0.497,2.604 -1.488,3.627 -0.992,1.023 -2.248,1.534 -3.767,1.534 -1.52,0 -2.464,0.187 -2.836,0.558 -0.249,0 -0.451,0.527 -0.604,1.582 -0.156,1.055 -0.232,2.107 -0.232,3.162 l 0,1.301 2.79,0 c 1.425,0 2.634,0.498 3.627,1.488 0.99,0.992 1.487,2.186 1.487,3.58 0,1.396 -0.497,2.604 -1.487,3.628 -0.993,1.022 -2.202,1.534 -3.627,1.534 l -2.79,0 0,32.829 c 0,1.427 -0.497,2.636 -1.488,3.627 -0.992,0.993 -2.201,1.488 -3.627,1.488 -1.427,0 -2.636,-0.495 -3.627,-1.488 -0.992,-0.991 -1.488,-2.2 -1.488,-3.627 l 0,-32.829 -2.418,0 c -1.427,0 -2.65,-0.496 -3.674,-1.488 -1.022,-0.99 -1.534,-2.199 -1.534,-3.627 0,-1.426 0.512,-2.635 1.534,-3.627 1.023,-0.99 2.247,-1.488 3.674,-1.488 l 2.418,0 0,-1.301 c 0,-10.416 4.681,-15.625 14.043,-15.625 1.363,0 2.558,0.512 3.581,1.535 1.021,1.023 1.533,2.233 1.533,3.627 z" /><path
       style="fill:#093f52;fill-opacity:1"
       id="path4229"
       d="m 399.114,-132.539 c 0,-1.426 0.496,-2.635 1.488,-3.627 0.991,-0.992 2.2,-1.488 3.627,-1.488 1.426,0 2.65,0.496 3.674,1.488 1.022,0.992 1.534,2.201 1.534,3.627 l 0,54.869 c 0,1.428 -0.512,2.637 -1.534,3.627 -1.023,0.992 -2.248,1.488 -3.674,1.488 -1.427,0 -2.636,-0.496 -3.627,-1.488 -0.992,-0.99 -1.488,-2.199 -1.488,-3.627 l 0,-54.869 z" /><path
       style="fill:#093f52;fill-opacity:1"
       id="path4231"
       d="m 453.217,-117.66 c 0.93,-0.93 2.076,-1.395 3.441,-1.395 1.362,0 2.541,0.48 3.533,1.441 0.991,0.962 1.488,2.125 1.488,3.488 l 0,35.153 c 0,6.2 -2.155,11.453 -6.464,15.764 -4.31,4.309 -9.564,6.463 -15.763,6.463 -3.287,0 -6.479,-0.775 -9.579,-2.324 -1.303,-0.559 -2.171,-1.474 -2.604,-2.744 -0.435,-1.271 -0.372,-2.558 0.187,-3.859 0.619,-1.116 1.595,-1.892 2.929,-2.325 1.333,-0.435 2.744,-0.278 4.232,0.466 1.487,0.743 3.348,1.1 5.579,1.069 2.232,-0.032 4.418,-0.837 6.557,-2.418 2.14,-1.582 3.581,-3.581 4.325,-5.999 -2.604,1.488 -5.55,2.232 -8.835,2.232 -5.333,0 -9.905,-1.921 -13.718,-5.767 -3.813,-3.844 -5.72,-8.431 -5.72,-13.764 l 0,-21.947 c 0,-1.363 0.479,-2.526 1.441,-3.488 0.961,-0.961 2.123,-1.441 3.487,-1.441 1.363,0 2.512,0.465 3.441,1.395 0.93,0.931 1.395,2.109 1.395,3.535 l 0,21.947 c 0,2.666 0.945,4.914 2.837,6.742 1.891,1.83 4.169,2.744 6.836,2.744 2.665,0 4.929,-0.914 6.788,-2.744 1.86,-1.828 2.79,-4.076 2.79,-6.742 l 0,-21.947 c 0.002,-1.426 0.468,-2.604 1.397,-3.535 z" /><path
       style="fill:#093f52;fill-opacity:1"
       id="path4233"
       d="m 489.368,-72.927 c -1.055,-0.495 -1.659,-0.914 -1.813,-1.255 -0.155,-0.341 -0.265,-0.543 -0.325,-0.605 -0.187,-0.061 -0.342,-0.309 -0.465,-0.744 l -15.066,-36.084 c -0.558,-1.238 -0.574,-2.464 -0.047,-3.673 0.526,-1.209 1.442,-2.093 2.744,-2.65 1.116,-0.558 2.293,-0.558 3.534,0 1.239,0.558 2.138,1.457 2.696,2.696 l 10.695,25.297 10.788,-25.297 c 0.495,-1.239 1.349,-2.139 2.558,-2.696 1.209,-0.557 2.448,-0.558 3.72,0 1.271,0.558 2.17,1.441 2.697,2.65 0.525,1.209 0.512,2.435 -0.047,3.673 l -15.252,36.084 c -0.125,0.312 -0.248,0.527 -0.372,0.651 -0.125,0.125 -0.248,0.265 -0.372,0.419 -0.125,0.155 -0.325,0.357 -0.604,0.604 -0.278,0.248 -0.48,0.45 -0.604,0.604 -0.125,0.155 -0.278,0.264 -0.465,0.325 l -0.186,0 0,0.093 c -0.249,0 -0.497,0.062 -0.744,0.187 l -0.187,0 c -0.248,0.062 -0.543,0.093 -0.883,0.093 -0.342,0 -0.637,-0.03 -0.884,-0.093 l -0.187,0 c -0.371,-0.124 -0.62,-0.187 -0.743,-0.187 l 0,-0.093 -0.186,0 z" /><path
       style="fill:#093f52;fill-opacity:1"
       id="path4235"
       d="m 561.277,-97.014 c 0,1.364 -0.45,2.465 -1.349,3.301 -0.899,0.838 -2.093,1.256 -3.58,1.256 l -29.574,0 c 0.558,2.667 1.611,4.713 3.162,6.139 1.983,2.294 4.882,3.674 8.695,4.139 3.812,0.465 7.114,-0.294 9.904,-2.279 0.931,-0.99 2.17,-1.488 3.72,-1.488 1.55,0 2.635,0.404 3.256,1.209 1.734,1.923 1.734,3.938 0,6.045 -4.465,4.093 -9.937,6.124 -16.415,6.092 -6.479,-0.03 -11.904,-2.309 -16.274,-6.835 -4.371,-4.525 -6.589,-9.981 -6.65,-16.368 0.062,-6.385 2.279,-11.857 6.65,-16.414 4.37,-4.558 9.655,-6.836 15.856,-6.836 6.198,0 11.423,2.031 15.67,6.092 4.246,4.061 6.557,9.223 6.929,15.484 l 0,0.463 z m -22.413,-13.206 c -3.597,0.187 -6.479,1.302 -8.649,3.349 -2.171,2.045 -3.473,4.217 -3.905,6.51 l 26.318,0 c -0.558,-2.17 -2.062,-4.278 -4.51,-6.324 -2.45,-2.046 -5.534,-3.223 -9.254,-3.535 z" /></g></svg>