<?xml version="1.0" encoding="UTF-8" standalone="no"?>
<!-- Created with Inkscape (http://www.inkscape.org/) -->

<svg
   xmlns:dc="http://purl.org/dc/elements/1.1/"
   xmlns:cc="http://creativecommons.org/ns#"
   xmlns:rdf="http://www.w3.org/1999/02/22-rdf-syntax-ns#"
   xmlns:svg="http://www.w3.org/2000/svg"
   xmlns="http://www.w3.org/2000/svg"
   xmlns:sodipodi="http://sodipodi.sourceforge.net/DTD/sodipodi-0.dtd"
   xmlns:inkscape="http://www.inkscape.org/namespaces/inkscape"
   id="svg4788"
   version="1.1"
   inkscape:version="0.91 r13725"
   width="60"
   height="60"
   viewBox="0 0 60 60"
   sodipodi:docname="stupid-user-avatar.svg"
   inkscape:export-filename="D:\ajsb85\git\flyve-mdm-web-ui\app\images\stupid-user-avatar.png"
   inkscape:export-xdpi="90"
   inkscape:export-ydpi="90">
  <metadata
     id="metadata4794">
    <rdf:RDF>
      <cc:Work
         rdf:about="">
        <dc:format>image/svg+xml</dc:format>
        <dc:type
           rdf:resource="http://purl.org/dc/dcmitype/StillImage" />
        <dc:title></dc:title>
      </cc:Work>
    </rdf:RDF>
  </metadata>
  <defs
     id="defs4792" />
  <sodipodi:namedview
     pagecolor="#ffffff"
     bordercolor="#666666"
     borderopacity="1"
     objecttolerance="10"
     gridtolerance="10"
     guidetolerance="10"
     inkscape:pageopacity="0"
     inkscape:pageshadow="2"
     inkscape:window-width="1920"
     inkscape:window-height="1018"
     id="namedview4790"
     showgrid="false"
     inkscape:zoom="3.9333333"
     inkscape:cx="30"
     inkscape:cy="30"
     inkscape:window-x="-8"
     inkscape:window-y="145"
     inkscape:window-maximized="1"
     inkscape:current-layer="svg4788" />
  <path
     style="fill:#65c9c0"
     inkscape:connector-curvature="0"
     d="m 48.970712,49.376548 c 0,1.551356 -1.257145,2.807463 -2.805039,2.807463 l -35.506048,0 c -1.5513559,0 -2.8071167,-1.256107 -2.8071167,-2.807463 l 0,-35.505009 c 0,-1.550663 1.2557608,-2.807463 2.8071167,-2.807463 l 35.505701,0 c 1.548241,0 2.80504,1.256453 2.80504,2.807463 l 0,35.505009 z"
     id="path25" />
  <path
     style="fill:#168784"
     inkscape:connector-curvature="0"
     d="m 52.147496,46.128808 c 0,1.551356 -1.257837,2.806424 -2.807116,2.806424 l -35.505355,0 c -1.551356,0 -2.805387,-1.255068 -2.805387,-2.806424 l 0,-35.506394 c 0,-1.5499713 1.254031,-2.8064244 2.805387,-2.8064244 l 35.505355,0 c 1.549625,0 2.807116,1.2564531 2.807116,2.8064244 l 0,35.506394 z"
     id="path27" />
  <text
     xml:space="preserve"
     style="font-style:normal;font-weight:normal;font-size:40px;line-height:125%;font-family:FontAwesome;letter-spacing:0px;word-spacing:0px;fill:#000000;fill-opacity:1;stroke:none;stroke-width:1px;stroke-linecap:butt;stroke-linejoin:miter;stroke-opacity:1;-inkscape-font-specification:FontAwesome;font-stretch:normal;font-variant:normal;"
     x="21.864407"
     y="35.084747"
     id="text5365"
     sodipodi:linespacing="125%"><tspan
       sodipodi:role="line"
       id="tspan5367"
       x="21.864407"
       y="35.084747" /></text>
  <g
     id="g5389"
     style="fill:#ffffff"
     transform="matrix(0.7986401,0,0,0.7986401,84.415818,1.7768709)">
    <path
       id="path5385"
       d="m -50.314769,45.441512 q 0,2.678571 -1.629464,4.21875 -1.629465,1.5625 -4.330358,1.5625 l -19.508928,0 q -2.700893,0 -4.330357,-1.5625 -1.629465,-1.540179 -1.629465,-4.21875 0,-1.183036 0.06696,-2.299107 0.08929,-1.138393 0.3125,-2.433036 0.245535,-1.316964 0.602678,-2.433036 0.357143,-1.116071 0.959822,-2.165178 0.602678,-1.071429 1.383928,-1.808036 0.78125,-0.758928 1.897322,-1.205357 1.138393,-0.446429 2.5,-0.446429 0.223214,0 0.959821,0.491072 0.736607,0.46875 1.629464,1.071428 0.892858,0.580358 2.388393,1.071429 1.495536,0.46875 3.013393,0.46875 1.517857,0 3.013393,-0.46875 1.495536,-0.491071 2.388393,-1.071429 0.892857,-0.602678 1.629464,-1.071428 0.736607,-0.491072 0.959822,-0.491072 1.361607,0 2.477678,0.446429 1.138393,0.446429 1.919643,1.205357 0.78125,0.736607 1.383929,1.808036 0.602678,1.049107 0.959821,2.165178 0.357143,1.116072 0.580357,2.433036 0.245536,1.294643 0.3125,2.433036 0.08929,1.116071 0.08929,2.299107 z"
       style="font-style:normal;font-weight:normal;font-size:medium;line-height:125%;font-family:sans-serif;letter-spacing:0px;word-spacing:0px;fill:#ffffff;fill-opacity:1;stroke:none;stroke-width:1px;stroke-linecap:butt;stroke-linejoin:miter;stroke-opacity:1"
       inkscape:connector-curvature="0" />
    <path
       id="path5381"
       d="m -59.979948,19.459369 q 2.522322,2.5 2.522322,6.049107 0,3.549107 -2.522322,6.071429 -2.5,2.5 -6.049107,2.5 -3.549107,0 -6.071428,-2.5 -2.5,-2.522322 -2.5,-6.071429 0,-3.549107 2.5,-6.049107 2.522321,-2.522321 6.071428,-2.522321 3.549107,0 6.049107,2.522321 z"
       style="font-style:normal;font-weight:normal;font-size:medium;line-height:125%;font-family:sans-serif;letter-spacing:0px;word-spacing:0px;fill:#ffffff;fill-opacity:1;stroke:none;stroke-width:1px;stroke-linecap:butt;stroke-linejoin:miter;stroke-opacity:1"
       inkscape:connector-curvature="0" />
  </g>
</svg>
