<?xml version="1.0" encoding="UTF-8" standalone="no"?>
<svg
   xmlns:dc="http://purl.org/dc/elements/1.1/"
   xmlns:cc="http://creativecommons.org/ns#"
   xmlns:rdf="http://www.w3.org/1999/02/22-rdf-syntax-ns#"
   xmlns:svg="http://www.w3.org/2000/svg"
   xmlns="http://www.w3.org/2000/svg"
   xmlns:sodipodi="http://sodipodi.sourceforge.net/DTD/sodipodi-0.dtd"
   xmlns:inkscape="http://www.inkscape.org/namespaces/inkscape"
   version="1.1"
   id="Calque_1"
   x="0px"
   y="0px"
   width="127.972"
   height="128.183"
   viewBox="0 0 127.972 128.18299"
   enable-background="new 0 0 841.89 595.28"
   xml:space="preserve"
   inkscape:version="0.91 r13725"
   sodipodi:docname="logo.svg"><sodipodi:namedview
     pagecolor="#ffffff"
     bordercolor="#666666"
     borderopacity="1"
     objecttolerance="10"
     gridtolerance="10"
     guidetolerance="10"
     inkscape:pageopacity="0"
     inkscape:pageshadow="2"
     inkscape:window-width="1920"
     inkscape:window-height="1058"
     id="namedview14"
     showgrid="false"
     inkscape:zoom="5.2628737"
     inkscape:cx="115.41901"
     inkscape:cy="52.949628"
     inkscape:window-x="-8"
     inkscape:window-y="-8"
     inkscape:window-maximized="1"
     inkscape:current-layer="Calque_1" /><metadata
     id="metadata22"><rdf:RDF><cc:Work
         rdf:about=""><dc:format>image/svg+xml</dc:format><dc:type
           rdf:resource="http://purl.org/dc/dcmitype/StillImage" /><dc:title /></cc:Work></rdf:RDF></metadata><defs
     id="defs3"><filter
       height="200%"
       width="200%"
       y="-50%"
       x="-50%"
       id="shadow"><feOffset
         id="feOffset6"
         dy="0"
         dx="0"
         in="SourceAlpha"
         result="offOut" /><feGaussianBlur
         id="feGaussianBlur8"
         stdDeviation="3"
         in="offOut"
         result="blurOut" /><feComponentTransfer
         id="feComponentTransfer10"
         result="opacityOut"
         in="blurOut"><feFuncA
           id="feFuncA12"
           slope="0.5"
           type="linear" /></feComponentTransfer><feBlend
         id="feBlend14"
         mode="normal"
         in2="opacityOut"
         in="SourceGraphic" /></filter></defs><g
     id="g4142"
     transform="matrix(0.53625146,0,0,0.53625146,29.673343,35.722483)"><path
       style="fill:#80cbc4;fill-opacity:1"
       id="path25"
       d="m 118.794,120.072 c 0,4.482 -3.632,8.111 -8.104,8.111 l -102.58,0 C 3.628,128.183 0,124.554 0,120.072 L 0,17.495 C 0,13.015 3.628,9.384 8.11,9.384 l 102.579,0 c 4.473,0 8.104,3.63 8.104,8.111 l 0,102.577 z"
       transform="matrix(0.80186773,0,0,0.80186773,12.677691,12.698594)"
       inkscape:connector-curvature="0" /><path
       style="fill:#009688;fill-opacity:1"
       id="path27"
       d="m 127.972,110.689 c 0,4.482 -3.634,8.108 -8.11,8.108 l -102.578,0 c -4.482,0 -8.105,-3.626 -8.105,-8.108 l 0,-102.581 C 9.179,3.63 12.802,0 17.284,0 l 102.578,0 c 4.477,0 8.11,3.63 8.11,8.108 l 0,102.581 z"
       transform="matrix(0.80186773,0,0,0.80186773,12.677691,12.698594)"
       inkscape:connector-curvature="0" /><path
       style="fill:#ffffff"
       id="path29"
       d="m 119.894,34.348 c -0.195,-0.608 -0.836,-0.957 -1.461,-0.81 L 91.23,39.922 c -1.91,-1.237 -4.375,-1.531 -6.604,-0.549 -3.521,1.549 -5.12,5.658 -3.579,9.182 0.038,0.08 0.081,0.194 0.131,0.299 -0.656,1.753 -0.714,3.777 -0.767,5.574 -0.093,3.324 -0.183,6.761 -2.871,9.53 -1.039,1.071 -2.05,2.028 -3.03,2.912 -0.212,-0.347 -0.45,-0.702 -0.711,-1.075 -0.023,-0.051 -0.044,-0.1 -0.064,-0.151 C 73.07,64.201 72.04,62.206 70.681,59.716 67.909,54.642 64.031,48.026 59.754,41.085 50.993,26.859 42.418,15.964 42.333,15.857 41.75,15.12 40.702,14.935 39.906,15.429 c -0.807,0.492 -1.108,1.508 -0.705,2.361 0.023,0.058 1.312,2.817 3.556,7.156 -4.221,-5.689 -7.304,-9.315 -7.355,-9.376 -0.596,-0.704 -1.632,-0.858 -2.413,-0.355 -0.78,0.505 -1.07,1.507 -0.679,2.344 0.029,0.061 1.62,3.464 4.372,8.556 -4.459,-4.006 -8.256,-6.377 -8.451,-6.501 -0.726,-0.447 -1.66,-0.344 -2.272,0.251 -0.61,0.598 -0.734,1.531 -0.308,2.267 0.11,0.18 2.035,3.436 5.358,7.479 -3.757,-2.35 -6.393,-3.695 -6.572,-3.787 -0.79,-0.398 -1.759,-0.182 -2.302,0.518 -0.552,0.7 -0.522,1.687 0.063,2.354 0.131,0.154 2.032,2.313 5.161,5.311 -2.049,-1.146 -3.382,-1.791 -3.506,-1.851 -0.793,-0.373 -1.742,-0.148 -2.276,0.552 -0.531,0.697 -0.502,1.673 0.069,2.335 0.189,0.218 4.114,4.748 10.155,9.73 -2.038,-0.888 -3.359,-1.355 -3.478,-1.399 -0.811,-0.285 -1.716,0.027 -2.175,0.75 -0.468,0.728 -0.369,1.674 0.227,2.293 0.116,0.119 1.776,1.823 4.505,4.108 -0.899,-0.334 -1.463,-0.51 -1.541,-0.531 -0.799,-0.24 -1.652,0.08 -2.102,0.779 -0.447,0.698 -0.372,1.611 0.18,2.232 0.102,0.113 1.643,1.83 4.209,4.031 -0.383,-0.112 -0.624,-0.173 -0.662,-0.182 -0.766,-0.187 -1.576,0.138 -2,0.803 -0.427,0.669 -0.38,1.537 0.11,2.154 0.104,0.136 2.189,2.743 5.638,5.431 -1.385,-0.482 -2.293,-0.707 -2.383,-0.727 -0.775,-0.192 -1.574,0.129 -2,0.8 -0.433,0.666 -0.381,1.533 0.109,2.151 0.107,0.129 2.07,2.581 5.324,5.179 -0.561,-0.127 -0.92,-0.183 -0.964,-0.191 -0.731,-0.113 -1.445,0.222 -1.843,0.834 -0.395,0.617 -0.395,1.411 0.009,2.021 0.093,0.128 1.819,2.717 4.848,5.067 -0.131,0.093 -0.262,0.188 -0.395,0.281 -0.424,0.276 -0.854,0.552 -1.318,0.831 -3.635,2.18 -8.256,3.954 -12.506,5.565 -6.134,2.33 2.862,3.434 15.505,1.369 0.183,0.004 0.348,0.019 0.543,0.019 0.798,0 1.738,-0.052 2.798,-0.149 l -4.186,4.426 c -0.271,0.29 -0.392,0.685 -0.313,1.078 0.066,0.389 0.325,0.722 0.682,0.889 l 13.461,6.385 7.939,7.461 c 0.241,0.22 0.543,0.337 0.845,0.337 0.331,0 0.656,-0.134 0.903,-0.39 0.467,-0.499 0.447,-1.282 -0.053,-1.747 l -2.926,-2.751 c 0.377,-0.072 0.717,-0.306 0.896,-0.678 0.291,-0.618 0.029,-1.357 -0.595,-1.647 l -5.597,-2.653 -6.647,-6.25 6.104,-6.44 c 1.898,-0.546 3.904,-1.227 5.882,-2.095 4.511,-1.985 8.224,-4.045 11.167,-6.16 2.659,-1.646 7.112,-4.78 11.969,-9.792 4.363,-4.498 4.515,-9.794 4.622,-13.666 0.028,-1.142 0.075,-2.795 0.284,-3.437 0.737,-0.664 1.504,-1.276 2.224,-1.594 1.507,-0.662 2.865,-1.325 3.809,-2.141 l 26.31,-11.552 c 0.581,-0.26 0.881,-0.922 0.675,-1.527 z M 44.2,91.952 c -0.227,0.238 -0.346,0.558 -0.34,0.885 0.009,0.33 0.151,0.639 0.392,0.865 l 1.957,1.842 -4.987,-2.364 5.109,-5.391 c 0.664,-0.112 1.404,-0.244 2.2,-0.407 L 44.2,91.952 Z M 68.967,70.954 c -0.041,0.038 -0.087,0.077 -0.125,0.116 -0.162,0.149 -0.337,0.305 -0.52,0.464 -0.021,0.015 -0.034,0.032 -0.052,0.046 -2.221,1.916 -5.882,4.312 -11.923,6.967 -3.228,1.422 -6.781,2.359 -9.891,2.937 5.873,-5.456 7.511,-10.892 7.626,-15.623 0.015,-0.498 0.009,-0.984 -0.006,-1.464 -0.006,-0.035 -0.006,-0.073 -0.006,-0.11 -0.017,-0.512 -0.055,-1.01 -0.104,-1.502 l 0,0 c -0.192,-1.924 -0.558,-3.689 -0.883,-5.221 -0.128,-0.581 -0.247,-1.143 -0.349,-1.685 -0.174,-0.923 -0.241,-1.594 -0.255,-2.06 0.18,0.083 0.386,0.187 0.612,0.311 0.156,0.084 0.337,0.193 0.511,0.297 0.061,0.032 0.116,0.062 0.171,0.102 0.235,0.143 0.482,0.304 0.743,0.482 0.009,0.003 0.015,0.007 0.026,0.012 1.763,1.193 4.178,3.153 7.145,6.137 0.44,0.444 0.862,0.881 1.274,1.313 0,0 0.006,0.004 0.006,0.007 0.313,0.327 0.604,0.645 0.894,0.961 0.113,0.122 0.232,0.247 0.343,0.364 0.264,0.299 0.522,0.588 0.772,0.874 0.122,0.136 0.243,0.271 0.359,0.402 0.232,0.271 0.456,0.533 0.674,0.79 0.116,0.141 0.232,0.279 0.349,0.418 0.197,0.238 0.386,0.472 0.571,0.701 0.116,0.148 0.232,0.291 0.349,0.434 0.16,0.203 0.316,0.405 0.462,0.598 0.118,0.155 0.231,0.3 0.342,0.448 0.122,0.163 0.244,0.33 0.354,0.482 0.128,0.177 0.238,0.333 0.349,0.492 0.072,0.109 0.159,0.228 0.224,0.327 0.174,0.257 0.328,0.489 0.449,0.695 -0.148,0.159 -0.322,0.323 -0.491,0.488 z M 87.242,44.672 c -1.307,0.573 -1.957,2.333 -2.531,1.038 -0.572,-1.307 0.02,-2.823 1.32,-3.399 1.307,-0.571 2.827,0.019 3.402,1.325 0.57,1.297 -0.896,0.463 -2.191,1.036 z"
       transform="matrix(0.80186773,0,0,0.80186773,12.677691,12.698594)"
       inkscape:connector-curvature="0" /></g></svg>